<svg width="800" height="500" viewBox="0 0 800 500" fill="none" xmlns="http://www.w3.org/2000/svg">
  <rect width="800" height="500" rx="12" fill="#0B1120"/>
  
  <rect x="40" y="40" width="120" height="120" rx="8" fill="#E11D48"/>
  <text x="40" y="180" fill="white" font-family="monospace" font-size="12">ROJO TÁCTICO</text>
  <text x="40" y="195" fill="#94A3B8" font-family="monospace" font-size="10">#E11D48 (Crimson)</text>

  <rect x="190" y="40" width="120" height="120" rx="8" fill="#10B981"/>
  <text x="190" y="180" fill="white" font-family="monospace" font-size="12">VERDE ACTIVO</text>
  <text x="190" y="195" fill="#94A3B8" font-family="monospace" font-size="10">#10B981 (Emerald)</text>

  <rect x="340" y="40" width="120" height="120" rx="8" fill="#F59E0B"/>
  <text x="340" y="180" fill="white" font-family="monospace" font-size="12">ORO ACENTO</text>
  <text x="340" y="195" fill="#94A3B8" font-family="monospace" font-size="10">#F59E0B (Amber)</text>

  <rect x="490" y="40" width="120" height="120" rx="8" fill="#F97316"/>
  <text x="490" y="180" fill="white" font-family="monospace" font-size="12">NARANJA ALERTA</text>
  <text x="490" y="195" fill="#94A3B8" font-family="monospace" font-size="10">#F97316 (Orange)</text>

  <rect x="640" y="40" width="120" height="120" rx="8" fill="#0B1120" stroke="#1E293B"/>
  <text x="640" y="180" fill="white" font-family="monospace" font-size="12">FONDO SPACE</text>
  <text x="640" y="195" fill="#94A3B8" font-family="monospace" font-size="10">#0B1120 (Slate 950)</text>

  {/* Surface & Borders */}
  <rect x="40" y="240" width="120" height="40" rx="4" fill="#1E293B"/>
  <text x="40" y="300" fill="white" font-family="monospace" font-size="10">SUPERFICIE #1E293B</text>

  <rect x="190" y="240" width="120" height="40" rx="4" fill="#334155"/>
  <text x="190" y="300" fill="white" font-family="monospace" font-size="10">BORDE #334155</text>

  <rect x="340" y="240" width="120" height="40" rx="4" fill="#94A3B8"/>
  <text x="340" y="300" fill="white" font-family="monospace" font-size="10">MUTED #94A3B8</text>

  <text x="40" y="430" fill="white" font-family="system-ui" font-weight="bold" font-size="24">PALETA DE COLORES - NUEVA ESPAÑA</text>
  <text x="40" y="455" fill="#94A3B8" font-family="monospace" font-size="12">SISTEMA VISUAL V.2.1 | TEORÍA DEL COLOR APLICADA</text>
</svg>
