<svg xmlns="http://www.w3.org/2000/svg" width="53" height="38" fill="none">
    <path
    fill="#474747"
    d="M47.259 21.251c-1.366-.478-3.27-.801-4.942-1.003-1.77-.214-3.486-1.51-5.244-1.808-.576-.098-1.166-.116-1.759-.116-1.472 0-1.677.163-2.086.407-.456.272-1.145 1.057-1.8 1.748-.654.69-1.104.975-1.513 1.097-.41.122-1.555.081-2.21 0-.523-.065-1.008-.433-1.185-.61-.106-.087-.39-.353-.86-.847-.257-.27-.57-.608-.94-1.022-1.31-1.463-1.596-4.878-1.964-6.097-.368-1.22-3.559-2.886-5.4-4.024-1.84-1.138-2.658-1.585-4.581-2.601C10.852 5.359 4.43 1.782 1.894.522.092-.373-.037.003.127.748c.137.622-.26 1.336-.08 1.947.043.146.114.299.202.452.433.752.922 2.096 1.405 2.816.308.46.465 1.392.767 1.856.082.126.187.254.308.384.642.697 1.257 1.91 1.985 2.517.083.07.169.138.256.206.714.557 1.308 1.515 2.04 2.049.202.147.432.308.678.492.367.273.62.661.904 1.02.374.475.59.233 1.36 1.318.982 1.381.491.447.9 1.788.41 1.341 1.841 4.837 3.846 7.966 2.004 3.13.981 2.886-.573 4.715-.687.808-2.46 1.835-4.29 2.745-2.133 1.061-3.562 5.213-1.192 4.978 1.228-.122 2.987-1.382 4.337-2.195 1.35-.813 2.25-.854 3.722-.975 1.473-.122 2.904-.244 6.259-.854 3.354-.61 3.845-1.341 5.645-2.195 1.282-.608 3.46-2.401 4.702-3.494.275-.243.518-.517.745-.806.471-.6 1.431-1.78 3.102-3.748 2.864-3.373 5.932-2.235 8.918-1.788 2.986.447 4.868 1.829 5.972 2.317 1.105.488 1.227.203.49-.488-.735-.691-2.372-1.504-5.276-2.52Z"
    />
</svg>
